<?xml version="1.0" encoding="UTF-8" standalone="no"?>
<!DOCTYPE svg PUBLIC "-//W3C//DTD SVG 1.1//EN"
 "http://www.w3.org/Graphics/SVG/1.1/DTD/svg11.dtd">
<!-- Generated by graphviz version 2.34.0 (20131206.1907)
 -->
<!-- Title: dummy Pages: 1 -->
<svg width="292pt" height="422pt"
 viewBox="0.00 0.00 292.00 422.00" xmlns="http://www.w3.org/2000/svg" xmlns:xlink="http://www.w3.org/1999/xlink">
<g id="graph0" class="graph" transform="scale(1 1) rotate(0) translate(4 418)">
<title>dummy</title>
<polygon fill="white" stroke="white" points="-4,4 -4,-418 288,-418 288,4 -4,4"/>
<!-- linux1 -->
<g id="node1" class="node"><title>linux1</title>
<ellipse fill="none" stroke="black" cx="53" cy="-396" rx="35.5738" ry="18"/>
<text text-anchor="middle" x="53" y="-390.4" font-family="Times,serif" font-size="14.00">linux1</text>
</g>
<!-- dummy1 -->
<g id="node2" class="node"><title>dummy1</title>
<polygon fill="none" stroke="black" points="219.018,-341.602 64.9817,-341.602 64.9817,-300.398 219.018,-300.398 219.018,-341.602"/>
<text text-anchor="middle" x="142" y="-323.8" font-family="Times,serif" font-size="14.00">notification:</text>
<text text-anchor="middle" x="142" y="-307" font-family="Times,serif" font-size="14.00">all linux builds available</text>
</g>
<!-- linux1&#45;&gt;dummy1 -->
<g id="edge1" class="edge"><title>linux1&#45;&gt;dummy1</title>
<path fill="none" stroke="black" d="M71.0105,-380.227C82.1992,-371.05 96.9008,-358.991 110.021,-348.23"/>
<polygon fill="black" stroke="black" points="112.429,-350.782 117.941,-341.734 107.989,-345.37 112.429,-350.782"/>
</g>
<!-- update1 -->
<g id="node5" class="node"><title>update1</title>
<ellipse fill="none" stroke="black" cx="41" cy="-246" rx="41.4082" ry="18"/>
<text text-anchor="middle" x="41" y="-240.4" font-family="Times,serif" font-size="14.00">update1</text>
</g>
<!-- dummy1&#45;&gt;update1 -->
<g id="edge4" class="edge"><title>dummy1&#45;&gt;update1</title>
<path fill="none" stroke="black" d="M114.668,-300.245C100.831,-290.244 84.032,-278.102 69.972,-267.94"/>
<polygon fill="black" stroke="black" points="71.7775,-264.927 61.6225,-261.905 67.6769,-270.6 71.7775,-264.927"/>
</g>
<!-- update2 -->
<g id="node6" class="node"><title>update2</title>
<ellipse fill="none" stroke="black" cx="142" cy="-246" rx="41.4082" ry="18"/>
<text text-anchor="middle" x="142" y="-240.4" font-family="Times,serif" font-size="14.00">update2</text>
</g>
<!-- dummy1&#45;&gt;update2 -->
<g id="edge5" class="edge"><title>dummy1&#45;&gt;update2</title>
<path fill="none" stroke="black" d="M142,-300.052C142,-292.216 142,-283.089 142,-274.636"/>
<polygon fill="black" stroke="black" points="145.5,-274.439 142,-264.439 138.5,-274.439 145.5,-274.439"/>
</g>
<!-- update3 -->
<g id="node7" class="node"><title>update3</title>
<ellipse fill="none" stroke="black" cx="243" cy="-246" rx="41.4082" ry="18"/>
<text text-anchor="middle" x="243" y="-240.4" font-family="Times,serif" font-size="14.00">update3</text>
</g>
<!-- dummy1&#45;&gt;update3 -->
<g id="edge6" class="edge"><title>dummy1&#45;&gt;update3</title>
<path fill="none" stroke="black" d="M169.332,-300.245C183.169,-290.244 199.968,-278.102 214.028,-267.94"/>
<polygon fill="black" stroke="black" points="216.323,-270.6 222.377,-261.905 212.223,-264.927 216.323,-270.6"/>
</g>
<!-- linux2 -->
<g id="node3" class="node"><title>linux2</title>
<ellipse fill="none" stroke="black" cx="142" cy="-396" rx="35.5738" ry="18"/>
<text text-anchor="middle" x="142" y="-390.4" font-family="Times,serif" font-size="14.00">linux2</text>
</g>
<!-- linux2&#45;&gt;dummy1 -->
<g id="edge2" class="edge"><title>linux2&#45;&gt;dummy1</title>
<path fill="none" stroke="black" d="M142,-377.7C142,-370.026 142,-360.77 142,-352.026"/>
<polygon fill="black" stroke="black" points="145.5,-351.755 142,-341.755 138.5,-351.755 145.5,-351.755"/>
</g>
<!-- linux3 -->
<g id="node4" class="node"><title>linux3</title>
<ellipse fill="none" stroke="black" cx="231" cy="-396" rx="35.5738" ry="18"/>
<text text-anchor="middle" x="231" y="-390.4" font-family="Times,serif" font-size="14.00">linux3</text>
</g>
<!-- linux3&#45;&gt;dummy1 -->
<g id="edge3" class="edge"><title>linux3&#45;&gt;dummy1</title>
<path fill="none" stroke="black" d="M212.99,-380.227C201.801,-371.05 187.099,-358.991 173.979,-348.23"/>
<polygon fill="black" stroke="black" points="176.011,-345.37 166.059,-341.734 171.571,-350.782 176.011,-345.37"/>
</g>
<!-- dummy2 -->
<g id="node8" class="node"><title>dummy2</title>
<polygon fill="none" stroke="black" points="204.909,-191.602 79.0907,-191.602 79.0907,-150.398 204.909,-150.398 204.909,-191.602"/>
<text text-anchor="middle" x="142" y="-173.8" font-family="Times,serif" font-size="14.00">notification:</text>
<text text-anchor="middle" x="142" y="-157" font-family="Times,serif" font-size="14.00">ready for qa signoff</text>
</g>
<!-- update1&#45;&gt;dummy2 -->
<g id="edge7" class="edge"><title>update1&#45;&gt;dummy2</title>
<path fill="none" stroke="black" d="M61.4389,-230.227C74.3758,-220.877 91.451,-208.535 106.551,-197.622"/>
<polygon fill="black" stroke="black" points="108.643,-200.428 114.697,-191.734 104.542,-194.755 108.643,-200.428"/>
</g>
<!-- update2&#45;&gt;dummy2 -->
<g id="edge8" class="edge"><title>update2&#45;&gt;dummy2</title>
<path fill="none" stroke="black" d="M142,-227.7C142,-220.026 142,-210.77 142,-202.026"/>
<polygon fill="black" stroke="black" points="145.5,-201.755 142,-191.755 138.5,-201.755 145.5,-201.755"/>
</g>
<!-- update3&#45;&gt;dummy2 -->
<g id="edge9" class="edge"><title>update3&#45;&gt;dummy2</title>
<path fill="none" stroke="black" d="M222.561,-230.227C209.624,-220.877 192.549,-208.535 177.449,-197.622"/>
<polygon fill="black" stroke="black" points="179.458,-194.755 169.303,-191.734 175.357,-200.428 179.458,-194.755"/>
</g>
<!-- dummy3 -->
<g id="node9" class="node"><title>dummy3</title>
<polygon fill="none" stroke="black" points="232.17,-113.602 51.83,-113.602 51.83,-72.3981 232.17,-72.3981 232.17,-113.602"/>
<text text-anchor="middle" x="142" y="-95.8" font-family="Times,serif" font-size="14.00">breakpoint:</text>
<text text-anchor="middle" x="142" y="-79" font-family="Times,serif" font-size="14.00">block graph until qa signs off</text>
</g>
<!-- dummy2&#45;&gt;dummy3 -->
<g id="edge10" class="edge"><title>dummy2&#45;&gt;dummy3</title>
<path fill="none" stroke="black" d="M142,-150.032C142,-142.09 142,-132.781 142,-124.056"/>
<polygon fill="black" stroke="black" points="145.5,-123.835 142,-113.835 138.5,-123.835 145.5,-123.835"/>
</g>
<!-- post_qa -->
<g id="node10" class="node"><title>post_qa</title>
<ellipse fill="none" stroke="black" cx="142" cy="-18" rx="78.9015" ry="18"/>
<text text-anchor="middle" x="142" y="-12.4" font-family="Times,serif" font-size="14.00">post&#45;signoff tasks</text>
</g>
<!-- dummy3&#45;&gt;post_qa -->
<g id="edge11" class="edge"><title>dummy3&#45;&gt;post_qa</title>
<path fill="none" stroke="black" d="M142,-72.0524C142,-64.2163 142,-55.0889 142,-46.6364"/>
<polygon fill="black" stroke="black" points="145.5,-46.4389 142,-36.4389 138.5,-46.439 145.5,-46.4389"/>
</g>
</g>
</svg>
