<?xml version="1.0" encoding="UTF-8" standalone="no"?>
<!DOCTYPE svg PUBLIC "-//W3C//DTD SVG 1.1//EN"
 "http://www.w3.org/Graphics/SVG/1.1/DTD/svg11.dtd">
<!-- Generated by graphviz version 2.34.0 (20131206.1907)
 -->
<!-- Title: dependency Pages: 1 -->
<svg width="692pt" height="634pt"
 viewBox="0.00 0.00 692.00 634.00" xmlns="http://www.w3.org/2000/svg" xmlns:xlink="http://www.w3.org/1999/xlink">
<g id="graph0" class="graph" transform="scale(1 1) rotate(0) translate(4 630)">
<title>dependency</title>
<polygon fill="white" stroke="white" points="-4,4 -4,-630 688,-630 688,4 -4,4"/>
<!-- job1 -->
<g id="node1" class="node"><title>job1</title>
<ellipse fill="none" stroke="black" cx="120" cy="-608" rx="28.3082" ry="18"/>
<text text-anchor="middle" x="120" y="-602.4" font-family="Times,serif" font-size="14.00">job1</text>
</g>
<!-- started -->
<g id="node2" class="node"><title>started</title>
<polygon fill="none" stroke="black" points="120,-551.3 34.595,-493 120,-434.7 205.405,-493 120,-551.3"/>
<text text-anchor="middle" x="120" y="-504.2" font-family="Times,serif" font-size="14.00">has the</text>
<text text-anchor="middle" x="120" y="-487.4" font-family="Times,serif" font-size="14.00">previous job</text>
<text text-anchor="middle" x="120" y="-470.6" font-family="Times,serif" font-size="14.00">started?</text>
</g>
<!-- job1&#45;&gt;started -->
<g id="edge1" class="edge"><title>job1&#45;&gt;started</title>
<path fill="none" stroke="black" d="M120,-589.838C120,-581.977 120,-572.1 120,-561.696"/>
<polygon fill="black" stroke="black" points="123.5,-561.607 120,-551.607 116.5,-561.607 123.5,-561.607"/>
</g>
<!-- ttl -->
<g id="node3" class="node"><title>ttl</title>
<polygon fill="none" stroke="black" points="550,-551.3 415.689,-493 550,-434.7 684.311,-493 550,-551.3"/>
<text text-anchor="middle" x="550" y="-504.2" font-family="Times,serif" font-size="14.00">has the </text>
<text text-anchor="middle" x="550" y="-487.4" font-family="Times,serif" font-size="14.00">previous pending job</text>
<text text-anchor="middle" x="550" y="-470.6" font-family="Times,serif" font-size="14.00">timed out?</text>
</g>
<!-- started&#45;&gt;ttl -->
<g id="edge2" class="edge"><title>started&#45;&gt;ttl</title>
<path fill="none" stroke="black" d="M205.468,-493C262.545,-493 339.038,-493 405.449,-493"/>
<polygon fill="black" stroke="black" points="405.593,-496.5 415.593,-493 405.593,-489.5 405.593,-496.5"/>
<text text-anchor="middle" x="310.396" y="-498.8" font-family="Times,serif" font-size="14.00">no</text>
</g>
<!-- finished -->
<g id="node4" class="node"><title>finished</title>
<polygon fill="none" stroke="black" points="120,-379.3 34.595,-321 120,-262.7 205.405,-321 120,-379.3"/>
<text text-anchor="middle" x="120" y="-332.2" font-family="Times,serif" font-size="14.00">has the</text>
<text text-anchor="middle" x="120" y="-315.4" font-family="Times,serif" font-size="14.00">previous job</text>
<text text-anchor="middle" x="120" y="-298.6" font-family="Times,serif" font-size="14.00">finished?</text>
</g>
<!-- started&#45;&gt;finished -->
<g id="edge3" class="edge"><title>started&#45;&gt;finished</title>
<path fill="none" stroke="black" d="M120,-434.446C120,-420.045 120,-404.467 120,-389.627"/>
<polygon fill="black" stroke="black" points="123.5,-389.495 120,-379.495 116.5,-389.495 123.5,-389.495"/>
<text text-anchor="middle" x="129.331" y="-401.4" font-family="Times,serif" font-size="14.00">yes</text>
</g>
<!-- ttl&#45;&gt;started -->
<g id="edge5" class="edge"><title>ttl&#45;&gt;started</title>
<path fill="none" stroke="black" d="M448.397,-478.705C403.925,-474.035 351.11,-470.632 303.396,-473.2 270.068,-474.994 233.481,-478.609 201.811,-482.265"/>
<polygon fill="black" stroke="black" points="201.235,-478.808 191.712,-483.451 202.052,-485.76 201.235,-478.808"/>
<text text-anchor="middle" x="310.396" y="-476" font-family="Times,serif" font-size="14.00">no</text>
</g>
<!-- dontrun -->
<g id="node5" class="node"><title>dontrun</title>
<ellipse fill="none" stroke="black" cx="465" cy="-149" rx="124.274" ry="29.3315"/>
<text text-anchor="middle" x="465" y="-151.8" font-family="Times,serif" font-size="14.00">mark job 2</text>
<text text-anchor="middle" x="465" y="-135" font-family="Times,serif" font-size="14.00">skipped due to dependencies</text>
</g>
<!-- ttl&#45;&gt;dontrun -->
<g id="edge4" class="edge"><title>ttl&#45;&gt;dontrun</title>
<path fill="none" stroke="black" d="M548.576,-435.093C546.098,-387.839 539.48,-319.33 522,-262 513.982,-235.705 500.049,-208.162 487.965,-186.97"/>
<polygon fill="black" stroke="black" points="490.975,-185.183 482.923,-178.298 484.924,-188.703 490.975,-185.183"/>
<text text-anchor="middle" x="553.331" y="-315.4" font-family="Times,serif" font-size="14.00">yes</text>
</g>
<!-- timeout -->
<g id="node6" class="node"><title>timeout</title>
<polygon fill="none" stroke="black" points="381,-379.3 248.517,-321 381,-262.7 513.483,-321 381,-379.3"/>
<text text-anchor="middle" x="381" y="-332.2" font-family="Times,serif" font-size="14.00">has the</text>
<text text-anchor="middle" x="381" y="-315.4" font-family="Times,serif" font-size="14.00">previous running job</text>
<text text-anchor="middle" x="381" y="-298.6" font-family="Times,serif" font-size="14.00">timed out?</text>
</g>
<!-- finished&#45;&gt;timeout -->
<g id="edge6" class="edge"><title>finished&#45;&gt;timeout</title>
<path fill="none" stroke="black" d="M205.461,-321C216.047,-321 227.083,-321 238.24,-321"/>
<polygon fill="black" stroke="black" points="238.511,-324.5 248.511,-321 238.511,-317.5 238.511,-324.5"/>
<text text-anchor="middle" x="226.672" y="-326.8" font-family="Times,serif" font-size="14.00">no</text>
</g>
<!-- successful -->
<g id="node7" class="node"><title>successful</title>
<polygon fill="none" stroke="black" points="120,-207.3 -0.341524,-149 120,-90.6998 240.342,-149 120,-207.3"/>
<text text-anchor="middle" x="120" y="-160.2" font-family="Times,serif" font-size="14.00">did the</text>
<text text-anchor="middle" x="120" y="-143.4" font-family="Times,serif" font-size="14.00">previous job finish</text>
<text text-anchor="middle" x="120" y="-126.6" font-family="Times,serif" font-size="14.00">successfully?</text>
</g>
<!-- finished&#45;&gt;successful -->
<g id="edge9" class="edge"><title>finished&#45;&gt;successful</title>
<path fill="none" stroke="black" d="M120,-262.446C120,-248.045 120,-232.467 120,-217.627"/>
<polygon fill="black" stroke="black" points="123.5,-217.495 120,-207.495 116.5,-217.495 123.5,-217.495"/>
<text text-anchor="middle" x="129.331" y="-229.4" font-family="Times,serif" font-size="14.00">yes</text>
</g>
<!-- timeout&#45;&gt;finished -->
<g id="edge8" class="edge"><title>timeout&#45;&gt;finished</title>
<path fill="none" stroke="black" d="M289.794,-302.756C266.923,-300.123 242.42,-298.962 219.672,-301.2 211.343,-302.019 202.679,-303.215 194.089,-304.619"/>
<polygon fill="black" stroke="black" points="193.321,-301.2 184.064,-306.353 194.514,-308.097 193.321,-301.2"/>
<text text-anchor="middle" x="226.672" y="-304" font-family="Times,serif" font-size="14.00">no</text>
</g>
<!-- timeout&#45;&gt;dontrun -->
<g id="edge7" class="edge"><title>timeout&#45;&gt;dontrun</title>
<path fill="none" stroke="black" d="M404.399,-272.646C417.657,-245.814 434.014,-212.71 446.391,-187.66"/>
<polygon fill="black" stroke="black" points="449.633,-189 450.925,-178.484 443.358,-185.899 449.633,-189"/>
<text text-anchor="middle" x="434.331" y="-229.4" font-family="Times,serif" font-size="14.00">yes</text>
</g>
<!-- successful&#45;&gt;dontrun -->
<g id="edge10" class="edge"><title>successful&#45;&gt;dontrun</title>
<path fill="none" stroke="black" d="M240.18,-149C269.357,-149 300.741,-149 330.532,-149"/>
<polygon fill="black" stroke="black" points="330.568,-152.5 340.568,-149 330.568,-145.5 330.568,-152.5"/>
<text text-anchor="middle" x="290.076" y="-154.8" font-family="Times,serif" font-size="14.00">no</text>
</g>
<!-- start_job2 -->
<g id="node8" class="node"><title>start_job2</title>
<ellipse fill="none" stroke="black" cx="120" cy="-18" rx="49.4888" ry="18"/>
<text text-anchor="middle" x="120" y="-12.4" font-family="Times,serif" font-size="14.00">start job 2</text>
</g>
<!-- successful&#45;&gt;start_job2 -->
<g id="edge11" class="edge"><title>successful&#45;&gt;start_job2</title>
<path fill="none" stroke="black" d="M120,-90.6675C120,-75.2117 120,-59.2001 120,-46.2418"/>
<polygon fill="black" stroke="black" points="123.5,-46.1541 120,-36.1542 116.5,-46.1542 123.5,-46.1541"/>
<text text-anchor="middle" x="129.331" y="-57.4" font-family="Times,serif" font-size="14.00">yes</text>
</g>
</g>
</svg>
